<svg width="635" height="401" viewBox="0 0 635 401" fill="none" xmlns="http://www.w3.org/2000/svg">
<path fill-rule="evenodd" clip-rule="evenodd" d="M217.089 400.151C213.036 399.621 209.017 398.311 205.245 396.165C189.646 387.286 184.198 367.442 193.077 351.843L355.772 66.0001H223.5C205.551 66.0001 191 51.4493 191 33.5001C191 15.5508 205.551 1.00009 223.5 1.00009H408.347C414.884 0.302681 421.694 1.57628 427.844 5.07678C443.444 13.9556 448.892 33.7992 440.013 49.3986L276.886 336H392.17L573.507 17.4066C582.386 1.80716 602.229 -3.64094 617.829 5.23791C633.428 14.1168 638.876 33.9603 629.997 49.5597L439.552 384.157C436.271 389.921 431.493 394.299 425.986 397.08C421.382 399.58 416.107 401 410.5 401H224.5C221.95 401 219.469 400.706 217.089 400.151ZM61.6141 383.061C52.7353 398.661 32.8917 404.109 17.2923 395.23C1.6929 386.351 -3.7552 366.508 5.12365 350.908L121.37 146.674C130.249 131.074 150.092 125.626 165.692 134.505C181.291 143.384 186.739 163.227 177.86 178.827L61.6141 383.061Z" fill="url(#paint0_linear)"/>
<defs>
<linearGradient id="paint0_linear" x1="634" y1="1.00002" x2="0.999974" y2="401" gradientUnits="userSpaceOnUse">
<stop stop-color="#A974FF"/>
<stop offset="0.515625" stop-color="#E2A4FF"/>
<stop offset="1" stop-color="#FFA8A8"/>
</linearGradient>
</defs>
</svg>
